<?xml version="1.0" encoding="UTF-8" standalone="no"?><!DOCTYPE svg PUBLIC "-//W3C//DTD SVG 1.1//EN" "http://www.w3.org/Graphics/SVG/1.1/DTD/svg11.dtd"><svg width="100%" height="100%" viewBox="0 0 624 197" version="1.1" xmlns="http://www.w3.org/2000/svg" xmlns:xlink="http://www.w3.org/1999/xlink" xml:space="preserve" xmlns:serif="http://www.serif.com/" style="fill-rule:evenodd;clip-rule:evenodd;stroke-linejoin:round;stroke-miterlimit:2;"><path d="M209.57,72.29l17.11,51l-9.42,0l-3.63,-11.29l-17.63,0l-3.48,11.31l-9.42,0l17.11,-51l9.36,-0.02Zm-10.95,31.33l12.38,0l-6.31,-19.73l-6.07,19.73Zm35.24,19.65l-0,-50.83l21.54,-0c8.85,-0 14.14,5.36 14.14,11.17l-0,10.8c-0,4.06 -2.75,8 -7.54,9.94l8.56,18.92l-9.86,-0l-8,-17.84l-9.36,-0l-0,17.84l-9.48,-0Zm9.43,-42.42l-0,16.24l11.39,0c3,0 5.51,-1.74 5.51,-4.71l-0,-6.74c-0,-3.12 -2.61,-4.79 -5.88,-4.79l-11.02,-0Zm44.89,42.42l-0,-42.49l-12.62,0l-0,-8.34l33.58,0l-0,8.34l-11.6,0l-0,42.49l-9.36,-0Zm32.34,-14.5l0,3.23c0,4.5 4.21,7.91 9.65,7.91l6,-0c5.58,-0 9.93,-2.69 9.93,-7.4l0,-3.51c0,-7.83 -28.06,-9.29 -28.06,-22.7l0,-4.58c0,-5.15 4.86,-9.65 11.38,-9.65l6.75,0c7.32,0 12.69,4.86 12.69,10.45l0,4.57l-4.21,0l0,-3.85c0,-4.2 -3.91,-7.39 -8.84,-7.39l-5.81,-0c-4.28,-0 -7.76,2.82 -7.76,6.52l0,3.7c0,10 28.07,11.31 28.07,22.34l0,4.86c0,6.38 -5.88,10.44 -13.78,10.44l-6.53,-0c-7.9,-0 -13.7,-5.08 -13.7,-11l0,-3.92l4.22,-0.02Zm50.77,14.5l0,-47.06l-14.22,-0l0,-3.7l32,-0l0,3.7l-13.58,-0l0,47.06l-4.2,-0Zm40.46,-51.12l17.91,51.12l-4.27,0l-5.66,-16.27l-20.31,-0l-5.58,16.31l-4.28,-0l18,-51.12l4.19,-0.04Zm-11,31l17.69,0l-8.84,-25.6l-8.85,25.6Zm43.78,20.12l-0,-47.06l-14.21,-0l-0,-3.7l32,-0l-0,3.7l-13.58,-0l-0,47.06l-4.21,-0Zm27.2,-0l-0,-50.76l4.2,-0l-0,50.76l-4.2,-0Zm30.27,0.44c-7,-0 -12,-5.08 -12,-11l-0,-29.61c-0,-5.95 5.08,-11 12,-11l10.08,-0c6.89,-0 11.89,5.08 11.89,11l-0,29.59c-0,5.94 -5,11 -11.89,11l-10.08,0.02Zm9.72,-3.77l0.13,0.001c4.317,0 7.87,-3.553 7.87,-7.87l-0,-0.041l-0,-28.28l0,-0.041c0,-4.312 -3.548,-7.86 -7.86,-7.86l-0.14,0.001l-9.5,-0l-0.19,-0.002c-4.312,-0 -7.86,3.548 -7.86,7.86l-0,0.042l-0,28.25l-0,0.052c-0,4.312 3.548,7.86 7.86,7.86l0.19,-0.002l9.5,0.03Zm26.36,3.33l-0,-50.76l4.35,-0l25.46,43.37l-0,-43.44l4.2,-0l-0,50.83l-4.35,-0l-25.45,-43.44l-0,43.44l-4.21,-0Z" style="fill:#fff;"/><path d="M51.42,123.26l65.48,0l12.3,21.32l-59.32,0c-4.025,0.003 -7.722,-2.274 -9.53,-5.87l-8.93,-15.45Zm105.77,0.11c-0,2.42 -0.45,3.63 -2.12,6.47l-8.46,14.65l-53.68,-93l18.37,-0c3.949,0.001 7.589,2.191 9.44,5.68l34.75,60.41c1.114,1.725 1.705,3.737 1.7,5.79Zm-49.04,-15.26l-47.99,-0l24,-41.55l23.99,41.55Z" style="fill:#13aff0;"/></svg>