<?xml version="1.0" encoding="UTF-8" standalone="no"?><!DOCTYPE svg PUBLIC "-//W3C//DTD SVG 1.1//EN" "http://www.w3.org/Graphics/SVG/1.1/DTD/svg11.dtd"><svg width="100%" height="100%" viewBox="0 0 800 800" version="1.1" xmlns="http://www.w3.org/2000/svg" xmlns:xlink="http://www.w3.org/1999/xlink" xml:space="preserve" xmlns:serif="http://www.serif.com/" style="fill-rule:evenodd;clip-rule:evenodd;stroke-linejoin:round;stroke-miterlimit:2;"><path d="M400,0c220.766,0 400,179.234 400,400c-0,220.766 -179.234,400 -400,400c-220.766,-0 -400,-179.234 -400,-400c0,-220.766 179.234,-400 400,-400Zm0,15c-212.487,0 -385,172.513 -385,385c0,212.487 172.513,385 385,385c212.487,-0 385,-172.513 385,-385c0,-212.487 -172.513,-385 -385,-385Zm20.329,438.767l-256.263,-0l128.4,-222.022l127.863,222.022Zm-303.341,81.319l349.887,-0l65.804,113.954l-317.253,-0c-21.932,-0 -41.192,-12.84 -50.822,-31.566l-47.616,-82.388Zm566.024,0.534c-0,12.84 -2.676,19.26 -11.234,34.241l-45.474,78.644l-287.294,-497.545l98.441,0c21.933,0 40.658,12.306 50.288,30.494l186.177,323.138c5.886,9.093 9.096,19.795 9.096,31.028Z"/></svg>