<?xml version="1.0" encoding="UTF-8" standalone="no"?><!DOCTYPE svg PUBLIC "-//W3C//DTD SVG 1.1//EN" "http://www.w3.org/Graphics/SVG/1.1/DTD/svg11.dtd"><svg width="100%" height="100%" viewBox="0 0 800 800" version="1.1" xmlns="http://www.w3.org/2000/svg" xmlns:xlink="http://www.w3.org/1999/xlink" xml:space="preserve" xmlns:serif="http://www.serif.com/" style="fill-rule:evenodd;clip-rule:evenodd;stroke-linejoin:round;stroke-miterlimit:2;"><path d="M400,0c220.766,0 400,179.234 400,400c0,220.766 -179.234,400 -400,400c-220.766,0 -400,-179.234 -400,-400c0,-220.766 179.234,-400 400,-400Zm0,15c-212.487,0 -385,172.513 -385,385c-0,212.487 172.513,385 385,385c212.487,0 385,-172.513 385,-385c0,-212.487 -172.513,-385 -385,-385Zm0.001,108.975c156.299,-0.001 283.011,126.706 283.011,283.012c-0,125.003 -80.99,231.049 -193.378,268.514c-14.348,2.78 -19.442,-6.045 -19.442,-13.577c0,-9.322 0.329,-39.8 0.329,-77.666c0,-26.403 -9.045,-43.627 -19.195,-52.411c63.019,-7.004 129.226,-30.941 129.226,-139.64c-0,-30.9 -10.98,-56.146 -29.126,-75.965c2.939,-7.129 12.63,-35.913 -2.775,-74.897c0,0 -23.732,-7.606 -77.751,29.011c-22.618,-6.272 -46.847,-9.415 -70.899,-9.522c-24.051,0.107 -48.263,3.25 -70.837,9.522c-54.083,-36.617 -77.849,-29.011 -77.849,-29.011c-15.366,38.984 -5.68,67.768 -2.741,74.897c-18.105,19.819 -29.161,45.067 -29.161,75.965c-0,108.441 66.083,132.709 128.942,139.867c-8.093,7.067 -15.428,19.55 -17.968,37.844c-16.15,7.23 -57.115,19.74 -82.357,-23.528c0,0 -14.964,-27.168 -43.384,-29.165c-0,-0 -27.612,-0.359 -1.936,17.206c0,0 18.549,8.696 31.423,41.41c0,-0 16.614,50.511 95.351,33.391c0.12,23.648 0.384,45.945 0.384,52.692c0,7.476 -5.194,16.235 -19.337,13.615c-112.451,-37.422 -193.543,-143.507 -193.543,-268.552c0,-156.306 126.73,-283.012 283.013,-283.012Zm-153.545,431.474c-1.735,1.202 -4.57,0.072 -6.321,-2.444c-1.733,-2.515 -1.733,-5.534 0.038,-6.743c1.758,-1.21 4.55,-0.122 6.326,2.375c1.73,2.558 1.731,5.575 -0.04,6.81l-0.003,0.002Zm-9.551,-15.893c-1.35,1.25 -3.987,0.667 -5.777,-1.309c-1.851,-1.973 -2.198,-4.61 -0.828,-5.882c1.392,-1.25 3.951,-0.666 5.806,1.309c1.851,1.995 2.211,4.614 0.801,5.88l-0.002,0.002Zm-13.919,-12.423c-0.622,1.405 -2.836,1.827 -4.85,0.863c-2.053,-0.923 -3.207,-2.841 -2.541,-4.252c0.611,-1.448 2.825,-1.851 4.874,-0.879c2.058,0.921 3.23,2.856 2.517,4.268Zm39.623,46.721c-1.552,1.709 -4.855,1.252 -7.274,-1.083c-2.473,-2.282 -3.163,-5.52 -1.607,-7.231c1.569,-1.714 4.892,-1.233 7.329,1.083c2.458,2.277 3.208,5.54 1.554,7.231l-0.002,0Zm20.873,6.215c-0.681,2.215 -3.864,3.223 -7.07,2.281c-3.2,-0.969 -5.295,-3.566 -4.65,-5.806c0.667,-2.23 3.863,-3.28 7.092,-2.273c3.197,0.966 5.296,3.543 4.63,5.798l-0.002,0Zm23.759,2.634c0.08,2.336 -2.639,4.271 -6.004,4.313c-3.385,0.073 -6.122,-1.815 -6.158,-4.11c0,-2.358 2.657,-4.275 6.041,-4.331c3.364,-0.066 6.121,1.809 6.121,4.128Zm23.337,-0.894c0.404,2.277 -1.936,4.617 -5.276,5.239c-3.285,0.599 -6.326,-0.806 -6.746,-3.064c-0.408,-2.335 1.976,-4.672 5.254,-5.278c3.348,-0.582 6.342,0.788 6.768,3.103Z"/></svg>