<?xml version="1.0" encoding="UTF-8" standalone="no"?><!DOCTYPE svg PUBLIC "-//W3C//DTD SVG 1.1//EN" "http://www.w3.org/Graphics/SVG/1.1/DTD/svg11.dtd"><svg width="100%" height="100%" viewBox="0 0 800 800" version="1.1" xmlns="http://www.w3.org/2000/svg" xmlns:xlink="http://www.w3.org/1999/xlink" xml:space="preserve" xmlns:serif="http://www.serif.com/" style="fill-rule:evenodd;clip-rule:evenodd;stroke-linejoin:round;stroke-miterlimit:2;"><path d="M400,0c220.766,0 400,179.234 400,400c0,220.766 -179.234,400 -400,400c-220.766,0 -400,-179.234 -400,-400c0,-220.766 179.234,-400 400,-400Zm0,15c-212.487,0 -385,172.513 -385,385c0,212.487 172.513,385 385,385c212.487,0 385,-172.513 385,-385c0,-212.487 -172.513,-385 -385,-385Zm-215.537,125.273c40.655,-0 65.622,26.293 66.506,61.203c0.221,34.026 -25.63,61.203 -67.169,61.203l-0.884,0c-39.992,0 -65.843,-26.956 -65.843,-61.203c-0,-34.91 26.735,-61.203 67.39,-61.203Zm358.603,163.282c78.437,0 139.861,50.819 139.861,159.968l0,196.204l-125.058,0l0,-182.505c0,-47.725 -19.443,-80.426 -62.529,-80.426c-32.921,0 -51.26,22.095 -59.656,43.307c-3.094,7.512 -2.652,18.117 -2.652,28.944l0,190.68l-123.953,0c-0,0 1.546,-323.471 -0,-352.858l123.953,0l0,55.459c7.291,-24.305 46.842,-58.773 110.034,-58.773Zm-301.156,3.314l-0,352.858l-110.255,0l0,-352.858l110.255,0Z"/></svg>