<?xml version="1.0" encoding="UTF-8" standalone="no"?>
<!DOCTYPE svg PUBLIC "-//W3C//DTD SVG 1.1//EN" "http://www.w3.org/Graphics/SVG/1.1/DTD/svg11.dtd">
<svg width="100%" height="100%" viewBox="0 0 1024 614" version="1.1" xmlns="http://www.w3.org/2000/svg" xmlns:xlink="http://www.w3.org/1999/xlink" xml:space="preserve" xmlns:serif="http://www.serif.com/">
    <path d="M684.368,449.606l-0,-16.39c5.57,-2.357 13.39,-6.535 23.46,-12.534c4.5,-2.571 7.392,-4.713 8.677,-6.427c0.857,-1.071 1.393,-2.25 1.607,-3.535c1.072,-5.357 2.036,-24.479 2.893,-57.366c0.857,-32.888 1.285,-72.364 1.285,-118.428c0,-67.703 -0.214,-109.482 -0.643,-125.336c-0.857,-40.28 -2.249,-63.312 -4.177,-69.097c-0.857,-2.571 -2.464,-4.499 -4.821,-5.784c-4.928,-3.214 -21.318,-5.357 -49.171,-6.428l0,-28.281c27.21,1.286 58.277,1.928 93.2,1.928c38.993,0 75.952,-0.642 110.875,-1.928l-0,28.281c-24.211,1.071 -38.994,3 -44.35,5.785c-2.357,1.285 -4.071,3.374 -5.142,6.267c-1.072,2.892 -2.089,16.122 -3.054,39.69c-0.964,23.567 -1.446,53.348 -1.446,89.343c0,3.856 0.107,34.815 0.322,92.878c0.214,30.637 0.375,61.008 0.482,91.11c0.107,30.102 0.268,48.367 0.482,54.795c29.566,1.285 49.706,1.928 60.419,1.928c32.566,-0 60.954,-1.928 85.164,-5.785c8.785,-1.285 14.034,-2.678 15.748,-4.178c1.714,-1.5 3.535,-5.463 5.463,-11.891c4.285,-16.283 8.463,-34.923 12.534,-55.919l26.674,-0c-0.642,5.999 -0.964,9.534 -0.964,10.605l-8.034,64.918c-1.714,20.354 -2.678,32.566 -2.893,36.637c-6.213,1.714 -12.426,2.893 -18.639,3.535c-13.07,1.072 -33.317,1.607 -60.741,1.607c-3.856,0 -29.031,-0.535 -75.523,-1.607c-35.352,-0.857 -59.991,-1.285 -73.917,-1.285c-20.997,-0 -52.92,0.964 -95.77,2.892Zm-684.368,0l0,-27.317c24.21,-1.714 38.565,-3.428 43.064,-5.142c2.572,-0.857 4.607,-2.357 6.107,-4.499c1.928,-2.785 3.213,-6.856 3.856,-12.212c1.5,-12.213 2.785,-38.887 3.857,-80.023c0.642,-19.926 0.964,-54.206 0.964,-102.841c-0,-43.493 -0.322,-82.005 -0.964,-115.535c-0.643,-33.53 -2.036,-53.509 -4.178,-59.937c-0.857,-2.999 -2.196,-5.302 -4.017,-6.909c-1.822,-1.607 -5.303,-2.839 -10.445,-3.696c-14.141,-2.357 -26.889,-3.749 -38.244,-4.178l0,-27.317c44.136,1.286 74.559,1.928 91.271,1.928c22.068,0 44.243,-0.642 66.525,-1.928l28.281,63.633l22.497,48.206l102.197,210.823c21.854,-42.207 38.244,-74.988 49.171,-98.341l42.422,-89.021c23.567,-49.707 37.976,-80.291 43.225,-91.753c5.249,-11.463 11.195,-25.978 17.836,-43.547c28.067,1.5 46.064,2.25 53.992,2.25l95.77,-2.25l0,27.317l-4.499,0c-21.64,-0.214 -35.352,2.303 -41.136,7.552c-5.785,5.25 -8.678,15.373 -8.678,30.371c0,17.782 -0.107,31.28 -0.321,40.493l-1.607,90.307l0,112.803c0,27.424 0.107,43.493 0.321,48.207c1.714,27.21 3.214,43.921 4.5,50.134c0.642,3 1.821,5.41 3.535,7.231c1.714,1.822 4.178,3.214 7.392,4.178c3.213,0.964 16.711,2.196 40.493,3.696l0,27.317l-102.519,-1.928l-100.27,1.928l0,-27.317c26.567,-0.857 41.726,-2.41 45.475,-4.66c3.749,-2.249 6.428,-7.338 8.034,-15.265c1.607,-7.927 2.411,-34.495 2.411,-79.702l-0,-233.962l-74.56,150.726l-35.672,74.881c-9.428,19.711 -22.711,48.313 -39.851,85.807c-10.498,22.711 -18.747,41.029 -24.746,54.956l-21.854,-0c-7.713,-17.997 -18.854,-42.636 -33.423,-73.917c-24.853,-53.563 -43.707,-93.521 -56.562,-119.874l-84.522,-172.579l-0,157.796c-0,26.353 0.374,57.687 1.124,94.003c0.75,36.315 1.554,56.883 2.411,61.704c0.857,4.821 2.196,8.302 4.017,10.445c1.821,2.142 5.035,3.964 9.641,5.463c4.607,1.5 17.729,2.893 39.369,4.178l-0,27.317c-23.996,-1.285 -48.528,-1.928 -73.595,-1.928c-32.781,-0 -58.812,0.643 -78.095,1.928Zm97.999,164.36l-10.097,0l-8.078,-59.155l-29.221,59.155l-3.088,0l-29.578,-59.63l-8.078,59.63l-9.859,0l12.354,-86.951l2.494,-0l34.211,69.015l33.973,-69.015l2.494,-0l12.473,86.951Zm24.113,0l-10.215,0l-0,-86.951l10.215,-0l0,86.951Zm17.818,-86.951l18.531,-0c12.512,-0 21.619,0.93 27.321,2.791c5.701,1.861 10.631,4.752 14.789,8.672c4.157,3.92 7.345,8.691 9.562,14.313c2.217,5.623 3.326,12.117 3.326,19.481c-0,7.365 -1.643,14.314 -4.93,20.847c-3.286,6.534 -7.958,11.641 -14.016,15.324c-6.059,3.682 -14.908,5.523 -26.549,5.523l-28.034,0l0,-86.951Zm9.86,77.211l9.027,-0c10.058,-0 17.383,-0.515 21.976,-1.544c4.593,-1.03 8.592,-3.01 11.997,-5.94c3.405,-2.93 5.999,-6.513 7.781,-10.75c1.781,-4.237 2.672,-9.127 2.672,-14.67c0,-5.543 -1.049,-10.671 -3.148,-15.383c-2.098,-4.712 -5.088,-8.552 -8.968,-11.522c-3.88,-2.97 -8.434,-4.95 -13.66,-5.939c-5.227,-0.99 -12.71,-1.485 -22.451,-1.485l-5.226,-0l-0,67.233Zm147.294,9.74l-3.088,0l-55.117,-63.075l0,63.075l-10.453,0l0,-86.951l3.088,-0l55.474,63.907l-0,-63.907l10.096,-0l0,86.951Zm95.861,0l-10.81,0l-13.422,-29.102l-35.874,-0l-13.304,29.102l-11.285,0l41.1,-90.396l3.089,-0l40.506,90.396Zm-28.865,-39.437l-13.185,-29.34l-13.304,29.34l26.489,0Zm80.062,-37.536l-19.006,-0l0,76.973l-10.334,0l-0,-76.973l-19.125,-0l0,-9.978l48.465,-0l-0,9.978Zm50.603,-0l-19.006,-0l0,76.973l-10.334,0l-0,-76.973l-19.125,-0l0,-9.978l48.465,-0l-0,9.978Zm83.388,76.973l-43.12,0l0,-86.951l10.335,-0l-0,77.092l32.785,-0l-0,9.859Zm88.496,0l-10.81,0l-13.423,-29.102l-35.873,-0l-13.304,29.102l-11.285,0l41.1,-90.396l3.089,-0l40.506,90.396Zm-28.865,-39.437l-13.186,-29.34l-13.304,29.34l26.49,0Zm108.808,39.437l-3.089,0l-55.116,-63.075l-0,63.075l-10.454,0l0,-86.951l3.089,-0l55.473,63.907l-0,-63.907l10.097,-0l-0,86.951Zm59.155,-76.973l-19.005,-0l-0,76.973l-10.335,0l0,-76.973l-19.124,-0l-0,-9.978l48.464,-0l0,9.978Zm61.294,0.119l-40.387,-0l-0,24.945l40.031,-0l-0,9.978l-40.031,-0l-0,31.834l40.031,0l-0,10.097l-50.247,0l0,-86.951l50.603,-0l0,10.097Zm70.678,76.854l-12.829,0l-30.647,-39.674l-3.563,-0l-0,39.674l-10.216,0l-0,-86.951l17.818,-0c9.503,-0 16.036,0.415 19.6,1.247c3.563,0.831 6.652,2.237 9.265,4.217c2.613,1.98 4.672,4.534 6.177,7.662c1.504,3.128 2.257,6.592 2.257,10.393c-0,7.207 -2.455,12.968 -7.365,17.284c-4.91,4.316 -11.997,6.474 -21.263,6.474l30.766,39.674Zm-47.039,-49.652l13.898,-0c6.968,0.079 12.116,-0.97 15.442,-3.148c3.326,-2.178 4.989,-5.662 4.989,-10.453c-0,-4.791 -1.624,-8.276 -4.87,-10.454c-3.247,-2.177 -8.315,-3.266 -15.205,-3.266l-14.254,-0l-0,27.321Zm130.189,49.652l-3.088,0l-55.117,-63.075l0,63.075l-10.453,0l-0,-86.951l3.088,-0l55.473,63.907l0,-63.907l10.097,-0l0,86.951Zm-1020.85,-122.755l0,-9.246l1024,0l-0,9.246l-1024,-0Z"/>
</svg>