<svg aria-hidden="true" width="85%" height="85%" viewBox="0 0 827 210" version="1.1" xmlns="http://www.w3.org/2000/svg" xmlns:xlink="http://www.w3.org/1999/xlink" xml:space="preserve" style="fill-rule:evenodd;clip-rule:evenodd;stroke-linejoin:round;stroke-miterlimit:2;">
    <path d="M798.004,100.421l-0.026,-0.002c0,0 -3.518,14.318 -5.486,21.988c-4.148,16.125 -7.521,28.047 -7.521,33.132c-0,5.9 3.09,9.36 8.614,9.36c9.501,0 14.322,-7.97 16.272,-15.553c0.424,-1.676 1.437,-2.645 3.157,-2.645l8.61,0c1.683,0 2.605,1.333 2.145,2.99c-6.145,21.362 -20.267,36.027 -42.874,36.027c-15.961,-0 -23.254,-9.728 -23.254,-22.678c-0,-9.632 14.361,-62.62 14.361,-62.62l-13.888,0c-2.584,0 -3.908,-1.748 -3.323,-4.05c0.471,-1.752 2.079,-8.202 2.976,-11.882c0.623,-2.559 2.236,-3.689 4.966,-3.689l14.231,0c0,0 8.387,-24.572 8.387,-38.38c-0,-16.733 -10.696,-27.102 -27.056,-27.102c-23.562,0 -34.919,16.562 -34.919,36.646c0,32.326 25.085,33.896 25.085,48.968c-0,5.299 -3.26,11.032 -10.524,11.032c-8.582,-0 -13.606,-6.732 -16.038,-12.827c-2.476,-0.688 -7.044,-1.991 -13.157,-1.991c-9.417,-0 -14.926,3.182 -14.926,10.181c-0,8.521 10.058,10.892 22.111,15.242c14.836,5.36 29.223,11.806 29.223,29.331c0,19.342 -15.987,33.994 -44.132,33.994c-20.547,-0 -36.223,-8.194 -42.429,-18.344c-13.096,10.876 -27.045,18.184 -48.837,18.184c-27.786,-0 -44.099,-18.433 -44.099,-40.16c-0,-3.772 0.316,-7.775 0.937,-11.843c-4.093,-0.938 -8.154,-1.814 -11.933,-2.599c-4.049,2.737 -9.138,4.235 -15.287,4.235c-8.039,0 -14.004,-5.147 -14.004,-10.815c0,-8.701 6.548,-12.708 14.684,-11.083c0.633,-1.165 1.346,-3.279 1.346,-5.729c0,-5.23 -2.44,-8.531 -8.367,-8.531c-16.788,-0 -27.961,28.071 -34.914,55.12c-3.648,14.139 -6.232,24.096 -6.543,25.342c-0.626,2.581 -2.374,3.833 -4.799,3.833l-17.827,-0c-2.938,-0 -4.034,-1.984 -3.383,-4.477c0.122,-0.452 1.506,-5.89 3.547,-13.888c-11.354,11.868 -27.38,20.594 -48.084,20.594c-20.319,0 -34.171,-9.997 -40.102,-23.923c-7.112,11.979 -19.248,23.923 -39.373,23.923c-12.106,0 -18.719,-5.602 -21.202,-13.955c-6.79,7.857 -16.16,13.955 -28.889,13.955c-18.644,0 -22.306,-12.819 -22.306,-22.722c-0,-13.087 9.993,-42.927 10.647,-51.244c0.602,-7.529 -4.484,-11.423 -10.341,-11.423c-12.389,0 -21.166,9.411 -24.73,23.628c0,-0 -13.454,52.907 -14.077,55.506c-0.654,2.737 -1.856,3.985 -4.986,3.985l-18.004,-0c-2.913,-0 -3.685,-2.16 -3.048,-4.636c0.08,-0.265 0.779,-2.997 1.868,-7.319c-7.441,7.97 -17.203,14.224 -29.516,14.224c-15.984,-0 -21.781,-9.742 -21.781,-22.693c0,-7.235 4.205,-22.672 8.003,-37.823c5.243,-20.887 10.202,-39.617 10.202,-39.617c0.659,-2.331 1.821,-3.989 5.002,-3.989l17.597,0c3.008,0 4.055,2.02 3.468,4.362c-0.46,1.842 -4.658,17.467 -9.432,36.436c-3.942,15.614 -7.214,28.163 -7.214,33.248c0,5.907 2.451,9.381 7.996,9.381c10.746,0 20.79,-13.594 24.944,-29.867c6.042,-23.756 12.336,-48.506 12.567,-49.393c0.54,-2.183 1.553,-4.166 5.292,-4.166l17.488,0c2.78,0 3.928,2.07 3.395,4.199c-0.535,2.026 -2.033,7.245 -2.033,7.245c4.962,-6.391 16.642,-13.68 27.931,-13.68c17.894,-0 26.619,9.439 26.619,25.716c0,12.176 -10.549,39.035 -10.549,49.763c0,6.811 2.656,9.993 8.946,9.993c10.544,0 16.983,-19.338 18.897,-27.619c4.083,-17.191 9.125,-36.382 9.223,-36.806l-14.251,0c-2.558,0 -3.907,-1.747 -3.307,-4.049c0.453,-1.752 2.078,-8.202 2.975,-11.883c0.611,-2.559 2.204,-3.688 4.959,-3.688l14.513,-0l7.413,-29.806c0.959,-3.768 2.985,-5.209 5.581,-5.723c2.607,-0.55 16.598,-3.282 16.598,-3.282c2.954,-0.627 5.791,1.321 4.978,4.705c-0.2,0.855 -8.535,34.106 -8.535,34.106l18.133,-0c2.562,-0 3.909,1.759 3.301,4.061c-0.46,1.752 -2.068,8.194 -2.953,11.893c-0.62,2.555 -2.227,3.666 -4.948,3.666l-18.434,0c-2.215,8.828 -4.205,16.783 -5.52,21.988c-3.934,15.614 -7.513,28.047 -7.513,33.132c-0,5.9 3.087,9.36 8.61,9.36c11.343,0 21.8,-17.011 23.262,-29.407c3.532,-29.818 24.272,-56.12 58.12,-56.12l0.069,0c22.849,0 34.402,13.82 34.402,26.98c0,24.492 -17.25,36.715 -45.253,36.715c-6.384,-0 -15.651,-1.409 -19.805,-3.049c-0,17.592 8.22,26.405 24.119,26.405c24.127,-0 43.303,-17.942 46.991,-32.347c5.902,-23.106 11.943,-46.824 12.41,-48.714c0.724,-2.877 2.512,-3.753 5.003,-3.753l17.604,0c3.11,0 3.95,2.237 3.454,4.242c-0.102,0.33 -1.395,5.411 -3.342,13.059c7.851,-11.727 19.183,-19.538 31.128,-19.538c17.148,-0 23.558,12.201 23.558,22.567c-0,5.947 -1.191,11.34 -2.848,15.98c2.077,0.463 4.14,0.944 6.199,1.448c7.37,-20.95 24.189,-39.995 54.259,-39.995l0.065,0c22.864,0 34.417,13.82 34.417,26.98c-0,24.492 -18.329,36.714 -45.232,36.714c-6.41,0 -16.117,-1.368 -19.849,-2.497c-0,17.576 8.245,25.854 24.163,25.854c16.118,0 27.497,-5.534 37.91,-14.062c1.382,-6.963 6.87,-12.258 13.37,-12.258c7.673,-0 11.788,4.795 11.788,10.672c-0,4.207 -1.998,6.737 -3.336,7.798c1.976,2.54 9.811,9.244 24.054,9.244c11.987,-0 18.111,-3.743 18.111,-10.114c0,-9.446 -11.137,-11.415 -23.237,-15.629c-13.612,-4.751 -28.089,-11.878 -28.089,-30.232c-0,-19.562 15.606,-33.012 40.381,-33.012c1.845,-0 3.637,0.057 5.371,0.18c-4.17,-6.514 -7.52,-16.967 -7.52,-25.955c-0,-30.79 21.223,-52.661 53.812,-52.661c28.883,-0 49.232,20.373 49.232,44.325c-0,11.996 -5.556,30.42 -6.979,36.079l19.794,0c2.541,0 3.88,1.76 3.291,4.061c-0.464,1.752 -2.067,8.195 -2.966,11.893c-0.6,2.555 -2.214,3.667 -4.965,3.667l-20.04,-0Zm-366.11,-0.895c-16.591,0 -22.918,16.657 -24.532,26.513c3.858,1.277 10.341,2.385 14.998,2.385c13.005,-0 21.318,-6.537 21.318,-17.261c-0,-6.33 -3.036,-11.637 -11.784,-11.637Zm187.941,0.001c-15.758,-0 -22.899,16.656 -24.503,26.512c3.833,1.277 10.32,2.385 15,2.385c12.993,0 21.292,-6.537 21.292,-17.261c0,-6.33 -3.789,-11.636 -11.789,-11.636Zm-410.694,-45.665c-0.634,9.309 -8.425,16.864 -17.405,16.864c-8.973,-0 -15.749,-7.555 -15.108,-16.864c0.652,-9.294 8.433,-16.836 17.392,-16.836c8.997,-0 15.747,7.542 15.121,16.836Zm-125.395,-53.851c43.976,0 78.146,31.335 78.146,73.217c0,43.669 -27.558,78.838 -65.782,78.838c-12.845,0 -24.898,-6.666 -29.052,-14.55c-0,-0 -6.356,24.206 -7.876,30.131c-4.283,16.421 -19.425,39.129 -20.66,40.776c-0.8,1.072 -2.216,0.641 -2.414,-0.633c-0.391,-2.375 -4.817,-29.563 -0.903,-46.344c2.294,-9.888 14.85,-63.013 14.85,-63.013c0,-0 -3.8,-7.583 -3.8,-18.806c-0,-17.633 10.225,-30.794 22.939,-30.794c10.816,-0 16.042,8.116 16.042,17.866c0,10.852 -6.917,27.127 -10.503,42.184c-2.986,12.642 6.331,22.914 18.778,22.914c22.542,0 39.832,-23.747 39.832,-58.041c-0,-30.348 -21.786,-51.554 -52.941,-51.554c-36.054,-0 -57.22,27.044 -57.22,54.993c0,10.887 4.199,22.585 9.411,28.912c1.046,1.267 1.201,2.367 0.886,3.649c-0.955,4.013 -3.101,12.609 -3.525,14.375c-0.547,2.316 -1.82,2.808 -4.231,1.687c-15.835,-7.365 -25.723,-30.511 -25.723,-49.09c-0,-40.012 29.04,-76.717 83.746,-76.717Z" class="pinterest-logo-red-path"/>
</svg>