<?xml version="1.0" encoding="UTF-8" standalone="no"?><!DOCTYPE svg PUBLIC "-//W3C//DTD SVG 1.1//EN" "http://www.w3.org/Graphics/SVG/1.1/DTD/svg11.dtd"><svg width="100%" height="100%" viewBox="0 0 800 800" version="1.1" xmlns="http://www.w3.org/2000/svg" xmlns:xlink="http://www.w3.org/1999/xlink" xml:space="preserve" xmlns:serif="http://www.serif.com/" style="fill-rule:evenodd;clip-rule:evenodd;stroke-linejoin:round;stroke-miterlimit:2;"><path id="pinterest---180-" serif:id="pinterest-[#180]" d="M395.04,0c-219.08,0 -395.04,177.392 -395.04,398.346c0,164.002 96.28,301.22 235.72,364.828c0,-74.7 -0.52,-65.06 56.4,-307.956c-31.28,-63.124 -6.96,-167.349 63.08,-167.349c97.2,0 31.16,144.117 19.92,200.827c-9.96,43.522 23.24,76.999 63.08,76.999c76.36,0 126.12,-97.085 126.12,-210.87c-0,-87.043 -59.72,-150.65 -162.64,-150.65c-183,-0 -229.4,203.811 -165.96,267.782c15.96,24.161 0,25.29 0,56.913c-11.08,33.437 -99.6,-15.166 -99.6,-140.567c-0,-113.825 92.96,-247.696 282.16,-247.696c149.36,0 248.96,110.437 248.96,227.609c0,157.306 -86.32,271.13 -212.44,271.13c-43.16,0 -83,-23.434 -96.28,-50.216c-24.12,93.818 -29,141.373 -66.4,194.131c36.52,10.043 73.04,16.739 112.88,16.739c219.08,0 395,-177.392 395,-398.306c-9.92,-224.302 -185.88,-401.694 -404.96,-401.694"/></svg>