<?xml version="1.0" encoding="UTF-8" standalone="no"?><!DOCTYPE svg PUBLIC "-//W3C//DTD SVG 1.1//EN" "http://www.w3.org/Graphics/SVG/1.1/DTD/svg11.dtd"><svg width="100%" height="100%" viewBox="0 0 800 800" version="1.1" xmlns="http://www.w3.org/2000/svg" xmlns:xlink="http://www.w3.org/1999/xlink" xml:space="preserve" xmlns:serif="http://www.serif.com/" style="fill-rule:evenodd;clip-rule:evenodd;stroke-linejoin:round;stroke-miterlimit:2;"><path d="M400,0c220.766,0 400,179.234 400,400c-0,220.766 -179.234,400 -400,400c-220.766,-0 -400,-179.234 -400,-400c0,-220.766 179.234,-400 400,-400Zm0,15c-212.487,0 -385,172.513 -385,385c0,212.487 172.513,385 385,385c212.487,-0 385,-172.513 385,-385c-0,-212.487 -172.513,-385 -385,-385Zm-3.509,101.988c155.005,0 279.502,125.51 286.521,284.211c-0,156.303 -124.469,281.813 -279.474,281.813c-28.188,-0 -54.027,-4.738 -79.866,-11.844c26.461,-37.327 29.914,-70.974 46.98,-137.353c9.396,18.949 37.584,35.529 68.121,35.529c89.233,0 150.307,-80.533 150.307,-191.832c0,-82.903 -70.47,-161.04 -176.146,-161.04c-133.865,-0 -199.637,94.717 -199.637,175.252c0,88.725 62.631,123.113 70.47,99.455c0,-22.374 11.292,-23.173 0,-40.267c-44.886,-45.262 -12.056,-189.464 117.422,-189.464c72.819,0 115.072,45.004 115.072,106.589c0,80.507 -35.206,149.197 -89.233,149.197c-28.188,0 -51.678,-23.686 -44.631,-54.479c7.952,-40.124 54.678,-142.091 -14.094,-142.091c-49.556,0 -66.763,73.742 -44.631,118.404c-40.273,171.856 -39.905,165.036 -39.905,217.888c-98.658,-45.004 -166.779,-142.09 -166.779,-258.126c0,-156.332 124.497,-281.842 279.503,-281.842Z"/></svg>